<?xml version="1.0" encoding="utf-8"?>
<!-- Generator: Adobe Illustrator 16.0.3, SVG Export Plug-In . SVG Version: 6.00 Build 0)  -->
<!DOCTYPE svg PUBLIC "-//W3C//DTD SVG 1.1//EN" "http://www.w3.org/Graphics/SVG/1.1/DTD/svg11.dtd">
<svg version="1.1" id="Layer_1" xmlns="http://www.w3.org/2000/svg" xmlns:xlink="http://www.w3.org/1999/xlink" x="0px" y="0px"
	 width="24px" height="18px" viewBox="18 20 24 18" enable-background="new 18 20 24 18" xml:space="preserve">
<g>
	<g>
		<path fill="#2c3e50" d="M24.343,24.929l-1.415-1.415c-0.39-0.39-1.023-0.39-1.413,0c-0.391,0.392-0.391,1.024,0,1.415l1.413,1.414
			c0.391,0.391,1.024,0.391,1.415,0C24.734,25.953,24.734,25.32,24.343,24.929z M40.999,31H39c-0.552,0-1,0.448-1,1.001
			c0,0.552,0.448,1,1,1h1.999c0.553,0,1.001-0.448,1.001-1C42,31.448,41.553,31,40.999,31z M21.001,31H19c-0.552,0-1,0.448-1,1.001
			c0,0.552,0.448,1,1,1h2.001c0.551,0,0.999-0.448,0.999-1C22,31.448,21.552,31,21.001,31z M35,36H25c-0.552,0-1,0.448-1,1
			c0,0.553,0.448,1,1,1h10c0.553,0,1.001-0.447,1.001-1C36.001,36.448,35.553,36,35,36z M38.486,23.515
			c-0.391-0.39-1.024-0.39-1.416,0l-1.414,1.415c-0.389,0.391-0.389,1.023,0,1.414c0.392,0.391,1.025,0.391,1.414,0l1.416-1.414
			C38.876,24.539,38.876,23.906,38.486,23.515z M30,24c0.552,0,1-0.448,1-1v-2c0-0.552-0.448-1-1-1c-0.552,0-1,0.448-1,1v2
			C29,23.552,29.448,24,30,24z M30,26c-3.314,0-6,2.686-6,6.001c0,0.701,0.127,1.373,0.348,2h2.191c-0.342-0.589-0.54-1.271-0.54-2
			c0-2.21,1.792-4,4-4c2.209,0,4,1.791,4,4c0,0.729-0.198,1.411-0.54,2h2.191c0.223-0.627,0.35-1.299,0.35-2
			C36.001,28.686,33.313,26,30,26z M30,34.125c0.276,0,0.5-0.224,0.5-0.501v-1.912l1.269,1.268c0.194,0.195,0.511,0.195,0.707,0
			c0.195-0.196,0.195-0.513,0-0.708l-2.121-2.121c-0.196-0.196-0.513-0.196-0.708,0l-2.122,2.121c-0.195,0.195-0.195,0.512,0,0.708
			c0.196,0.195,0.512,0.195,0.708,0l1.268-1.268v1.912C29.5,33.901,29.724,34.125,30,34.125z"/>
	</g>
</g>
</svg>
