<?xml version="1.0" encoding="utf-8"?>
<!-- Generator: Adobe Illustrator 16.0.3, SVG Export Plug-In . SVG Version: 6.00 Build 0)  -->
<!DOCTYPE svg PUBLIC "-//W3C//DTD SVG 1.1//EN" "http://www.w3.org/Graphics/SVG/1.1/DTD/svg11.dtd">
<svg version="1.1" id="Layer_1" xmlns="http://www.w3.org/2000/svg" xmlns:xlink="http://www.w3.org/1999/xlink" x="0px" y="0px"
	 width="24px" height="18px" viewBox="18 21 24 18" enable-background="new 18 21 24 18" xml:space="preserve">
<path fill="#2c3e50" d="M41,34h-2c-0.552,0-1-0.448-1-1s0.448-0.999,1-0.999h2c0.553,0,1,0.447,1,0.999S41.553,34,41,34z M37.072,27.344
	c-0.391,0.391-1.025,0.391-1.414,0c-0.391-0.391-0.391-1.023,0-1.414l1.414-1.415c0.391-0.39,1.023-0.39,1.414,0
	c0.391,0.391,0.391,1.024,0,1.415L37.072,27.344z M35.651,35.001h-2.19C33.802,34.411,34,33.73,34,33c0-2.208-1.792-4-4-4
	c-2.209,0-4,1.792-4,4c0,0.73,0.198,1.411,0.54,2.001h-2.191C24.127,34.374,24,33.703,24,33c0-3.313,2.686-6,6-6
	c3.313,0,6,2.686,6,6C36,33.703,35.873,34.374,35.651,35.001z M30,25c-0.553,0-1-0.448-1-1v-2c0-0.552,0.447-1,1-1
	c0.552,0,1,0.448,1,1v2C31.001,24.552,30.552,25,30,25z M22.929,27.344l-1.414-1.414c-0.391-0.391-0.391-1.024,0-1.415
	c0.391-0.39,1.023-0.39,1.414,0l1.415,1.415c0.391,0.391,0.391,1.023,0,1.414C23.952,27.734,23.32,27.734,22.929,27.344z M22,33
	c0,0.552-0.448,1-1,1H19c-0.551,0-1-0.448-1-1s0.449-0.999,1-0.999H21C21.552,32.001,22,32.448,22,33z M30,31
	c0.276,0,0.5,0.224,0.5,0.5v1.914l1.268-1.267c0.195-0.195,0.512-0.195,0.707,0s0.195,0.512,0,0.707l-2.122,2.121
	c-0.195,0.195-0.512,0.195-0.708,0l-2.121-2.121c-0.196-0.195-0.196-0.512,0-0.707c0.195-0.195,0.511-0.195,0.707,0l1.268,1.267
	V31.5C29.5,31.224,29.724,31,30,31z M25,37h10c0.553,0,1,0.449,1,1.002C36,38.553,35.553,39,35,39H25c-0.552,0-1-0.447-1-0.998
	C24,37.449,24.448,37,25,37z"/>
</svg>
